<svg width="76" height="17" viewBox="0 0 76 17" fill="none" xmlns="http://www.w3.org/2000/svg">
<path d="M47.5259 2.20086V4.49188H46.0899V5.99432H47.5259V11.0993C47.5259 12.8425 48.3145 13.5397 50.2984 13.5397C50.647 13.5397 50.9791 13.4982 51.2696 13.4484V11.9626C51.0206 11.9875 50.8628 12.0041 50.5889 12.0041C49.7007 12.0041 49.3106 11.589 49.3106 10.6428V5.99432H51.2696V4.49188H49.3106V2.20086H47.5259Z" fill="black"/>
<path d="M56.3234 13.6642C58.9631 13.6642 60.5817 11.8962 60.5817 8.966C60.5817 6.05242 58.9548 4.27606 56.3234 4.27606C53.6838 4.27606 52.0568 6.05242 52.0568 8.966C52.0568 11.8962 53.6755 13.6642 56.3234 13.6642ZM56.3234 12.0788C54.7712 12.0788 53.8996 10.9416 53.8996 8.966C53.8996 7.00701 54.7712 5.8615 56.3234 5.8615C57.8674 5.8615 58.7473 7.00701 58.7473 8.966C58.7473 10.9333 57.8674 12.0788 56.3234 12.0788Z" fill="black"/>
<path d="M61.9666 13.4899H63.7513V8.15252C63.7513 6.8825 64.7059 6.02752 66.0589 6.02752C66.3743 6.02752 66.9056 6.08563 67.055 6.13543V4.37566C66.8641 4.32586 66.5238 4.30096 66.2581 4.30096C65.0794 4.30096 64.075 4.94842 63.8177 5.8366H63.6849V4.45037H61.9666V13.4899Z" fill="black"/>
<path d="M71.4863 5.7951C72.8061 5.7951 73.6694 6.71649 73.7109 8.13592H69.1455C69.2451 6.72479 70.1665 5.7951 71.4863 5.7951ZM73.7026 11.0495C73.3706 11.7551 72.6318 12.1452 71.5527 12.1452C70.125 12.1452 69.2036 11.1408 69.1455 9.55535V9.45574H75.5288V8.83318C75.5288 5.99432 74.0097 4.27606 71.4946 4.27606C68.9463 4.27606 67.3276 6.11053 67.3276 8.9992C67.3276 11.8879 68.9131 13.6642 71.5029 13.6642C73.5698 13.6642 75.0141 12.6681 75.4209 11.0495H73.7026Z" fill="black"/>
<path d="M35.8223 10.1518C35.96 12.3715 37.8098 13.791 40.5629 13.791C43.5053 13.791 45.3464 12.3026 45.3464 9.92807C45.3464 8.0611 44.2968 7.02868 41.7502 6.43504L40.3822 6.0995C38.7647 5.72095 38.1109 5.21334 38.1109 4.32718C38.1109 3.20872 39.1261 2.47742 40.6489 2.47742C42.0943 2.47742 43.0923 3.19151 43.273 4.33578H45.1486C45.0367 2.24513 43.1956 0.773926 40.6747 0.773926C37.9646 0.773926 36.1579 2.24513 36.1579 4.45623C36.1579 6.28018 37.1817 7.36422 39.4272 7.88903L41.0275 8.27619C42.6707 8.66335 43.3934 9.23118 43.3934 10.1776C43.3934 11.2788 42.2578 12.0789 40.7091 12.0789C39.0487 12.0789 37.8958 11.3304 37.7323 10.1518H35.8223Z" fill="black"/>
<path d="M17.335 4.30096C16.1065 4.30096 15.044 4.91522 14.4961 5.94451H14.3633V4.45037H12.6451V16.4948H14.4297V12.1203H14.5708C15.044 13.0749 16.065 13.6393 17.3516 13.6393C19.6343 13.6393 21.087 11.8381 21.087 8.966C21.087 6.09393 19.6343 4.30096 17.335 4.30096ZM16.8287 12.0373C15.3345 12.0373 14.3965 10.8586 14.3965 8.9743C14.3965 7.08172 15.3345 5.90301 16.837 5.90301C18.3477 5.90301 19.2525 7.05682 19.2525 8.966C19.2525 10.8835 18.3477 12.0373 16.8287 12.0373Z" fill="black"/>
<path d="M27.3318 4.30096C26.1033 4.30096 25.0408 4.91522 24.4929 5.94451H24.3601V4.45037H22.6419V16.4948H24.4265V12.1203H24.5676C25.0408 13.0749 26.0618 13.6393 27.3484 13.6393C29.6311 13.6393 31.0838 11.8381 31.0838 8.966C31.0838 6.09393 29.6311 4.30096 27.3318 4.30096ZM26.8255 12.0373C25.3313 12.0373 24.3933 10.8586 24.3933 8.9743C24.3933 7.08172 25.3313 5.90301 26.8338 5.90301C28.3445 5.90301 29.2493 7.05682 29.2493 8.966C29.2493 10.8835 28.3445 12.0373 26.8255 12.0373Z" fill="black"/>
<path d="M9.44307 13.4899H11.4907L7.00827 1.07505H4.93482L0.452393 13.4899H2.4312L3.57547 10.1948H8.3074L9.44307 13.4899ZM5.87261 3.32917H6.01887L7.817 8.57731H4.06587L5.87261 3.32917Z" fill="black"/>
</svg>
