<svg width="24" height="26" viewBox="0 0 24 26" fill="none" xmlns="http://www.w3.org/2000/svg">
<path fill-rule="evenodd" clip-rule="evenodd" d="M16.8548 7.23243L5.33321 0.550647C4.89811 0.290047 4.39031 0.139648 3.84691 0.139648C2.72573 0.139648 1.73974 0.818929 1.26689 1.76851L1.35348 1.85509L11.7935 12.2928L16.8548 7.23243ZM0.972947 2.88869C0.97097 2.93103 0.969971 2.97354 0.969971 3.01622V22.9838C0.969971 23.0265 0.970969 23.0689 0.972943 23.1112L11.0863 12.9998L0.972947 2.88869ZM1.26692 24.2314C1.73984 25.181 2.72597 25.8603 3.84691 25.8603C4.37861 25.8603 4.87781 25.7166 5.30591 25.4642L5.33991 25.4443L16.8746 18.7869L11.7935 13.7069L1.35349 24.1448L1.26692 24.2314ZM17.7713 18.2694L22.4684 15.5584C23.3707 15.0713 23.9832 14.1201 23.9832 13.0232C23.9832 11.9342 23.3789 10.9877 22.4856 10.499L22.4754 10.492L17.7499 7.75155L12.5006 12.9998L17.7713 18.2694Z" fill="black"/>
</svg>
