<svg width="98" height="48" viewBox="0 0 98 48" fill="none" xmlns="http://www.w3.org/2000/svg">
<g clip-path="url(#clip0_67_234)">
<path fill-rule="evenodd" clip-rule="evenodd" d="M40.8841 20.4229H30.9748L31.0358 20.0923C31.6211 16.835 33.3704 15.1101 36.0949 15.1101C38.625 15.1101 40.3987 16.9754 40.8403 20.1002L40.8841 20.4229ZM35.8835 9.04688C27.7674 9.04688 21.8744 14.8761 21.8744 22.9067C21.8744 31.0357 27.7826 36.7137 36.249 36.7137C39.6666 36.7137 42.2607 36.035 44.6599 34.513C47.1334 32.9412 48.8931 30.8067 49.5399 28.6139H40.459C39.6233 29.933 38.1274 30.6949 36.5663 30.5971C33.5818 30.5971 31.6716 28.8034 31.0345 25.41L30.9736 25.0777H50.16C50.2087 19.7576 48.5843 15.3245 45.5711 12.5734C42.9161 10.2043 39.4473 8.94237 35.8866 9.04931M71.1438 48.0083L87.9005 9.90298H97.4486L80.6919 48.0083H71.1401H71.1438ZM9.97461 36.4306H19.1152V7.84992H29.0172V-0.00567627H0.00561523V7.84992H9.97461V36.4306ZM52.678 36.3735H61.7906V0.00161487H52.678V36.3735ZM66.2254 36.3735H75.3374V0.00161487H66.2254V36.3735Z" fill="#1E1EC8"/>
</g>
<defs>
<clipPath id="clip0_67_234">
<rect width="97.4545" height="48" fill="white"/>
</clipPath>
</defs>
</svg>
